<?xml version="1.0" encoding="UTF-8"?>
<svg id="Layer_1" data-name="Layer 1" xmlns="http://www.w3.org/2000/svg" viewBox="0 0 757.69 392.53">
  <defs>
    <style>
      .cls-1 {
        fill: none;
        stroke: #4396d2;
        stroke-width: 4px;
      }

      .cls-2 {
        fill: #5d6d75;
      }

      .cls-2, .cls-3, .cls-4, .cls-5, .cls-6, .cls-7, .cls-8, .cls-9, .cls-10, .cls-11, .cls-12, .cls-13 {
        stroke-width: 0px;
      }

      .cls-3 {
        fill: #78b354;
      }

      .cls-4 {
        fill: #2a2f33;
      }

      .cls-5 {
        fill: #4396d2;
      }

      .cls-6 {
        fill: #418ac2;
      }

      .cls-7 {
        fill: #c26a50;
      }

      .cls-8 {
        fill: #65abde;
      }

      .cls-9 {
        fill: #91c9ed;
      }

      .cls-10 {
        fill: #fff;
      }

      .cls-11 {
        fill: #ffe8b6;
      }

      .cls-12 {
        fill: #ffd983;
      }

      .cls-13 {
        fill: #e3a03c;
      }
    </style>
  </defs>
  <g>
    <path class="cls-5" d="m621.6,81.25c-1.56-15.45-8.25-30.91-20.42-43.26-21.35-21.68-52.52-27.09-77-15.66l7.46,14.33c9.35-4.37,20.06-5.56,30.6-3.41,10.54,2.15,20.38,7.54,28.12,15.39,8.95,9.09,14.01,20.46,15.37,31.89l-32.3-1.44,41.32,41.97,38.98-38.38-32.12-1.44Z"/>
    <path class="cls-5" d="m571.43,356.16c15.52.39,31.7-4.3,45.49-14.81,24.2-18.45,33.49-48.69,25.23-74.42l-15.16,5.59c3.16,9.82,2.99,20.6-.47,30.78-3.46,10.19-10.05,19.27-18.81,25.96-10.15,7.74-22.06,11.32-33.57,11.23l5.5-31.86-46.84,35.71,33.17,43.5,5.47-31.68Z"/>
  </g>
  <g>
    <path class="cls-5" d="m188.98,31.68c-15.52-.39-31.7,4.3-45.49,14.81-24.2,18.45-33.49,48.69-25.23,74.42l15.16-5.59c-3.16-9.82-2.99-20.6.47-30.78,3.46-10.19,10.05-19.27,18.81-25.96,10.15-7.74,22.06-11.32,33.57-11.23l-5.5,31.86,46.84-35.71L194.45,0l-5.47,31.68Z"/>
    <path class="cls-5" d="m142.7,306.49c-.39,15.52,4.3,31.7,14.81,45.49,18.45,24.2,48.69,33.49,74.42,25.23l-5.59-15.16c-9.82,3.16-20.6,2.99-30.78-.47-10.19-3.46-19.27-10.05-25.96-18.81-7.74-10.15-11.32-22.06-11.23-33.57l31.86,5.5-35.71-46.84-43.5,33.17,31.68,5.47Z"/>
  </g>
  <g>
    <path class="cls-1" d="m307.35,308.53h143c22.64,0,41,18.36,41,41h0c0,22.64-18.36,41-41,41h-143c-22.64,0-41-18.36-41-41h0c0-22.64,18.36-41,41-41Z"/>
    <g>
      <path class="cls-10" d="m378.39,360.44l-7.11-19.6h4.45l5.38,14.78,5.38-14.78h4.45l-7.11,19.6h-5.43Zm18.82.36c-1.29,0-2.46-.33-3.53-.99-1.05-.66-1.9-1.55-2.53-2.66-.62-1.12-.94-2.36-.94-3.71,0-1.03.18-1.98.55-2.87.36-.9.86-1.68,1.5-2.35.64-.68,1.39-1.21,2.24-1.6.85-.38,1.76-.57,2.72-.57,1.29,0,2.46.33,3.51.99,1.06.66,1.91,1.55,2.53,2.67.63,1.12.95,2.36.95,3.72,0,1.02-.18,1.97-.55,2.86s-.87,1.67-1.51,2.35c-.63.67-1.38,1.2-2.23,1.58-.84.38-1.75.57-2.72.57Zm0-4.2c.53,0,1.01-.14,1.43-.43.43-.29.77-.67,1.01-1.15.24-.49.36-1.01.36-1.58s-.13-1.12-.39-1.61c-.25-.49-.59-.87-1.02-1.15-.42-.29-.88-.43-1.39-.43s-1,.15-1.43.45c-.42.29-.76.68-1.01,1.16-.24.49-.36,1.01-.36,1.58,0,.6.13,1.13.38,1.61.26.48.6.85,1.02,1.13.43.28.9.42,1.4.42Zm16.93-5.96h-2.38v9.8h-4.2v-9.8h-1.82v-4.2h1.82v-4.4h4.2v4.4h2.38v4.2Zm8.41,10.16c-1.29,0-2.46-.33-3.53-.99-1.05-.66-1.9-1.55-2.53-2.67-.62-1.12-.94-2.36-.94-3.71,0-1.02.18-1.97.55-2.86.36-.9.86-1.68,1.5-2.35.64-.68,1.39-1.21,2.24-1.6.85-.38,1.75-.57,2.72-.57,1.12,0,2.14.25,3.07.74.93.49,1.72,1.15,2.35,1.99.64.83,1.1,1.77,1.37,2.81s.3,2.12.08,3.23h-9.34c.13.33.3.63.52.9.22.26.5.47.81.63.33.16.7.24,1.13.25.41,0,.79-.08,1.13-.27.36-.19.66-.44.92-.76l4.28.99c-.57,1.24-1.42,2.26-2.55,3.05-1.13.78-2.39,1.18-3.79,1.18Zm-2.62-9.06h5.25c-.13-.4-.33-.76-.59-1.06-.26-.31-.57-.55-.92-.73-.35-.18-.72-.27-1.12-.27s-.76.09-1.12.27c-.35.18-.65.42-.91.73-.25.31-.45.66-.59,1.06Z"/>
      <g>
        <path class="cls-9" d="m360.58,356.32c0,2.17-1.76,1.97-3.94,1.97h-24.6c-2.17,0-3.94.21-3.94-1.97l1.97-13.77c.29-1.72.98-1.97,1.97-1.97h24.6c.98,0,1.76.2,1.97,1.97l1.97,13.77Z"/>
        <path class="cls-4" d="m354.68,347.96c0,.82-.66,1.48-1.48,1.48h-17.71c-.82,0-1.48-.66-1.48-1.48s.66-1.48,1.48-1.48h17.71c.81,0,1.48.66,1.48,1.48Z"/>
        <path class="cls-12" d="m352.47,348.64v-13.77c0-1.09-.88-1.97-1.97-1.97h-12.79c-1.09,0-1.97.88-1.97,1.97v13.77h16.73Z"/>
        <path class="cls-8" d="m360.58,356.33c0-1.09-.88-1.97-1.97-1.97h-28.53c-1.09,0-1.97.88-1.97,1.97v7.87c0,1.09.88,1.97,1.97,1.97h28.53c1.09,0,1.97-.88,1.97-1.97v-7.87Z"/>
        <path class="cls-6" d="m339.92,354.36v5.9c0,1.09.88,1.97,1.97,1.97h4.92c1.09,0,1.97-.88,1.97-1.97v-5.9h-8.85Z"/>
        <path class="cls-8" d="m348.78,354.36v-.98c0-1.09-.88-1.97-1.97-1.97h-4.92c-1.09,0-1.97.88-1.97,1.97v.98h8.85Zm-2.95,4.43c0,.81-.66,1.48-1.48,1.48s-1.48-.66-1.48-1.48v-.98c0-.81.66-1.48,1.48-1.48s1.48.66,1.48,1.48v.98Z"/>
        <path class="cls-7" d="m350.25,336.65c0,.27-.22.49-.49.49h-7.38c-.27,0-.49-.22-.49-.49s.22-.49.49-.49h7.38c.27,0,.49.22.49.49Zm0,3.94c0,.27-.22.49-.49.49h-7.38c-.27,0-.49-.22-.49-.49s.22-.49.49-.49h7.38c.27,0,.49.22.49.49Zm0,3.94c0,.27-.22.49-.49.49h-7.38c-.27,0-.49-.22-.49-.49s.22-.49.49-.49h7.38c.27,0,.49.22.49.49Z"/>
        <path class="cls-7" d="m339.43,337.63c.54,0,.98-.44.98-.98s-.44-.98-.98-.98-.98.44-.98.98.44.98.98.98Z"/>
        <path class="cls-7" d="m339.43,341.57c.54,0,.98-.44.98-.98s-.44-.98-.98-.98-.98.44-.98.98.44.98.98.98Z"/>
        <path class="cls-7" d="m339.43,345.5c.54,0,.98-.44.98-.98s-.44-.98-.98-.98-.98.44-.98.98.44.98.98.98Z"/>
      </g>
    </g>
  </g>
  <g>
    <path class="cls-1" d="m307.35,5.78h143c22.64,0,41,18.36,41,41h0c0,22.64-18.36,41-41,41h-143c-22.64,0-41-18.36-41-41h0c0-22.64,18.36-41,41-41Z"/>
    <g>
      <g>
        <path class="cls-12" d="m338.38,29.66h-20.17c-2.02,0-3.67,1.64-3.67,3.67v22h-1.83c-2.02,0-3.67,1.64-3.67,3.67s1.64,3.67,3.67,3.67h22c2.02,0,3.67-1.64,3.67-3.67v-22c2.03,0,3.67-1.64,3.67-3.67s-1.64-3.67-3.67-3.67Z"/>
        <path class="cls-13" d="m316.38,38.82h22v-1.83h-20.17l-1.83-.92v2.75Z"/>
        <path class="cls-11" d="m318.21,29.66c-2.02,0-3.67,1.64-3.67,3.67v22.51c-.54-.32-1.16-.51-1.83-.51-2.02,0-3.67,1.64-3.67,3.67s1.64,3.67,3.67,3.67,3.67-1.64,3.67-3.67v-22.51c.54.32,1.16.51,1.83.51,2.02,0,3.67-1.64,3.67-3.67s-1.64-3.67-3.67-3.67Z"/>
        <path class="cls-7" d="m320.05,33.32c0,1.01-.82,1.83-1.83,1.83s-1.83-.82-1.83-1.83.82-1.83,1.83-1.83,1.83.82,1.83,1.83Zm-5.5,25.67c0,1.01-.82,1.83-1.83,1.83s-1.83-.82-1.83-1.83.82-1.83,1.83-1.83,1.83.82,1.83,1.83Zm22-15.58c0,.51-.41.92-.92.92h-16.5c-.51,0-.92-.41-.92-.92s.41-.92.92-.92h16.5c.51,0,.92.41.92.92Zm0,3.67c0,.51-.41.92-.92.92h-16.5c-.51,0-.92-.41-.92-.92s.41-.92.92-.92h16.5c.51,0,.92.41.92.92Zm0,3.67c0,.51-.41.92-.92.92h-16.5c-.51,0-.92-.41-.92-.92s.41-.92.92-.92h16.5c.51,0,.92.41.92.92Zm0,3.67c0,.51-.41.92-.92.92h-16.5c-.51,0-.92-.41-.92-.92s.41-.92.92-.92h16.5c.51,0,.92.41.92.92Z"/>
      </g>
      <path class="cls-10" d="m350.32,56.91v-19.6h7.39c1.07,0,2.04.28,2.91.83.88.54,1.57,1.27,2.09,2.18.51.91.77,1.9.77,2.98s-.27,2.1-.8,3.01c-.52.91-1.22,1.63-2.1,2.17-.88.54-1.83.81-2.87.81h-3.19v7.62h-4.2Zm4.2-11.82h2.72c.37,0,.71-.09,1.02-.28.31-.2.56-.45.74-.77.19-.32.28-.67.28-1.05s-.09-.73-.28-1.05-.43-.57-.74-.76c-.31-.2-.65-.29-1.02-.29h-2.72v4.2Zm10.94,11.82v-14s4.19,0,4.19,0v.88c.48-.4,1.01-.71,1.61-.94s1.23-.34,1.89-.34c.5,0,1.02.07,1.54.22l-1.65,4.26c-.33-.15-.66-.22-1.01-.22-.44,0-.84.11-1.2.32-.35.21-.64.49-.85.85-.21.35-.31.75-.31,1.19v7.77h-4.2Zm16.24.36c-1.29,0-2.46-.33-3.53-.99-1.06-.66-1.9-1.55-2.53-2.66-.63-1.12-.94-2.36-.94-3.71,0-1.03.18-1.98.55-2.87.36-.9.86-1.68,1.5-2.35.64-.68,1.39-1.21,2.24-1.6.85-.38,1.75-.57,2.72-.57,1.29,0,2.46.33,3.51.99,1.06.66,1.91,1.55,2.53,2.67.63,1.12.95,2.36.95,3.72,0,1.02-.18,1.97-.55,2.86s-.87,1.67-1.51,2.35c-.64.67-1.38,1.2-2.23,1.58-.84.38-1.75.57-2.72.57Zm0-4.2c.53,0,1.01-.14,1.43-.43.43-.29.76-.67,1.01-1.15.24-.49.36-1.01.36-1.58s-.13-1.12-.39-1.61c-.25-.49-.59-.87-1.02-1.15-.42-.29-.88-.43-1.39-.43s-1,.15-1.43.45c-.42.29-.76.68-1.01,1.16-.24.49-.36,1.01-.36,1.58,0,.6.13,1.13.38,1.61.26.48.6.85,1.02,1.13.43.28.9.42,1.4.42Zm13.3,10.84h-4.2v-21h4.2v1.32c.44-.49.95-.9,1.53-1.2.58-.32,1.25-.48,2-.48,1.03,0,1.98.19,2.87.57.89.38,1.67.91,2.34,1.6.68.67,1.21,1.45,1.58,2.34.38.89.57,1.84.57,2.86s-.19,1.97-.57,2.87c-.37.9-.9,1.68-1.58,2.37-.67.67-1.45,1.2-2.34,1.58-.89.38-1.84.57-2.87.57-.76,0-1.42-.16-2-.48-.58-.32-1.09-.72-1.53-1.2v8.29Zm3.47-17.33c-.57,0-1.09.15-1.57.46-.47.3-.84.7-1.12,1.2-.28.5-.42,1.06-.42,1.67s.14,1.18.42,1.68c.28.5.65.91,1.12,1.2.48.3,1,.45,1.57.45s1.11-.15,1.58-.45c.48-.3.85-.7,1.13-1.2.28-.5.42-1.06.42-1.68s-.14-1.16-.42-1.67c-.28-.5-.66-.91-1.13-1.2-.48-.31-1-.46-1.58-.46Zm15.82,10.7c-1.29,0-2.46-.33-3.53-.99-1.05-.66-1.9-1.55-2.53-2.66-.62-1.12-.94-2.36-.94-3.71,0-1.03.18-1.98.55-2.87.36-.9.86-1.68,1.5-2.35.64-.68,1.39-1.21,2.24-1.6.85-.38,1.75-.57,2.72-.57,1.29,0,2.46.33,3.51.99,1.06.66,1.91,1.55,2.53,2.67.64,1.12.95,2.36.95,3.72,0,1.02-.18,1.97-.55,2.86s-.87,1.67-1.51,2.35c-.63.67-1.38,1.2-2.23,1.58-.84.38-1.74.57-2.72.57Zm0-4.2c.53,0,1.01-.14,1.43-.43.43-.29.77-.67,1.01-1.15.24-.49.36-1.01.36-1.58s-.13-1.12-.39-1.61c-.25-.49-.59-.87-1.02-1.15-.42-.29-.88-.43-1.39-.43s-1,.15-1.43.45c-.42.29-.76.68-1.01,1.16-.24.49-.36,1.01-.36,1.58,0,.6.13,1.13.38,1.61.26.48.6.85,1.02,1.13.43.28.9.42,1.4.42Zm13.27,4.09c-.71-.07-1.39-.22-2.04-.46-.65-.24-1.24-.57-1.75-.99-.51-.42-.92-.93-1.22-1.54l3.53-1.51c.09.1.22.23.39.39.17.15.38.28.63.41.26.12.57.18.94.18.24,0,.48-.02.7-.07.23-.06.42-.15.56-.28.15-.13.22-.31.22-.55,0-.26-.1-.46-.29-.59-.19-.14-.42-.24-.69-.29-.27-.07-.52-.12-.76-.15-.83-.13-1.63-.39-2.39-.78-.76-.4-1.38-.92-1.86-1.55-.49-.64-.73-1.4-.73-2.25,0-.96.25-1.79.74-2.49s1.14-1.24,1.93-1.61c.8-.38,1.67-.57,2.59-.57,1.09,0,2.1.22,3.02.67.93.45,1.7,1.09,2.3,1.93l-3.3,1.96c-.11-.14-.25-.28-.42-.42-.16-.15-.35-.28-.56-.38-.21-.11-.43-.18-.67-.21-.33-.03-.62-.01-.88.04-.25.05-.45.15-.6.31-.15.15-.22.37-.22.66,0,.27.13.47.39.59.26.12.56.21.88.27.33.06.59.12.8.18.8.26,1.56.6,2.27,1.02.71.42,1.28.93,1.71,1.53.44.6.64,1.3.62,2.1,0,.93-.28,1.75-.84,2.46s-1.28,1.25-2.17,1.61c-.89.36-1.82.5-2.81.41Zm14.08.11c-1.29,0-2.46-.33-3.53-.99-1.05-.66-1.9-1.55-2.53-2.67-.62-1.12-.94-2.36-.94-3.71,0-1.02.18-1.97.55-2.86.36-.9.86-1.68,1.5-2.35.64-.68,1.39-1.21,2.24-1.6.85-.38,1.76-.57,2.72-.57,1.12,0,2.14.25,3.07.74.93.49,1.72,1.15,2.35,1.99.64.83,1.1,1.77,1.37,2.81.27,1.05.3,2.12.08,3.23h-9.34c.13.33.3.63.52.9.22.26.49.47.81.63.33.16.71.24,1.13.25.41,0,.79-.08,1.13-.27.35-.19.66-.44.92-.76l4.28.99c-.57,1.24-1.42,2.26-2.55,3.05-1.13.78-2.39,1.18-3.79,1.18Zm-2.62-9.06h5.25c-.13-.4-.33-.76-.59-1.06-.26-.31-.57-.55-.92-.73-.35-.18-.72-.27-1.12-.27s-.76.09-1.12.27c-.35.18-.65.42-.91.73-.25.31-.45.66-.59,1.06Z"/>
    </g>
  </g>
  <g>
    <g>
      <path class="cls-1" d="m571.69,155.57h143c22.64,0,41,18.36,41,41h0c0,22.64-18.36,41-41,41h-143c-22.64,0-41-18.36-41-41h0c0-22.64,18.36-41,41-41Z"/>
      <g>
        <path class="cls-10" d="m619.81,206.37v-19.6h6.5c1.35,0,2.62.26,3.79.77,1.19.5,2.23,1.21,3.12,2.11.9.9,1.61,1.94,2.11,3.12.51,1.18.77,2.44.77,3.79s-.26,2.62-.77,3.81c-.5,1.18-1.21,2.22-2.11,3.12-.9.9-1.94,1.6-3.12,2.11-1.18.5-2.44.76-3.79.76h-6.5Zm4.2-4.2h2.3c.76,0,1.47-.14,2.14-.43.67-.29,1.27-.69,1.79-1.2.52-.51.93-1.11,1.22-1.78.3-.68.45-1.41.45-2.18s-.15-1.5-.45-2.17c-.29-.67-.7-1.26-1.22-1.78-.51-.52-1.11-.93-1.78-1.22-.67-.29-1.39-.43-2.16-.43h-2.3v11.2Zm14.34-9.8h4.2v14h-4.2v-14Zm2.13-1.46c-.61,0-1.12-.2-1.53-.6-.41-.4-.62-.9-.62-1.5s.21-1.08.62-1.48c.41-.41.91-.62,1.51-.62s1.08.21,1.48.62c.41.4.62.9.62,1.48s-.2,1.1-.6,1.5c-.39.4-.89.6-1.48.6Zm9.18,15.71c-.71-.07-1.39-.22-2.04-.46-.65-.24-1.24-.57-1.75-.99-.51-.42-.92-.93-1.22-1.54l3.53-1.51c.09.1.22.23.39.39.17.15.38.28.63.41.26.12.57.18.94.18.24,0,.48-.02.7-.07.23-.06.42-.15.56-.28.15-.13.22-.31.22-.55,0-.26-.1-.46-.29-.59-.19-.14-.42-.24-.69-.29-.27-.07-.52-.12-.76-.15-.83-.13-1.63-.39-2.39-.78-.76-.4-1.38-.92-1.86-1.55-.49-.64-.73-1.4-.73-2.25,0-.96.25-1.79.74-2.49.49-.7,1.14-1.24,1.93-1.61.8-.38,1.67-.57,2.59-.57,1.09,0,2.1.22,3.02.67.93.45,1.7,1.09,2.3,1.93l-3.3,1.96c-.11-.14-.25-.28-.42-.42-.16-.15-.35-.28-.56-.38-.21-.11-.43-.18-.67-.21-.33-.03-.62-.01-.88.04-.25.05-.45.15-.6.31-.15.15-.22.37-.22.66,0,.27.13.47.39.59s.56.21.88.27c.33.06.59.12.8.18.8.26,1.56.6,2.27,1.02.71.42,1.28.93,1.71,1.53.44.6.64,1.3.62,2.1,0,.93-.28,1.75-.84,2.46s-1.28,1.25-2.17,1.61c-.89.36-1.83.5-2.81.41Zm15.9-4.84l3.78,2.04c-.64.88-1.45,1.58-2.42,2.11-.97.53-2.03.8-3.18.8-1.29,0-2.46-.33-3.53-.99-1.05-.66-1.9-1.55-2.53-2.66-.62-1.12-.94-2.36-.94-3.71,0-1.03.18-1.98.55-2.87.36-.9.86-1.68,1.5-2.35.64-.68,1.39-1.21,2.24-1.6.85-.38,1.76-.57,2.72-.57,1.15,0,2.21.27,3.18.8.97.53,1.78,1.25,2.42,2.14l-3.78,2.04c-.25-.25-.54-.44-.85-.57-.31-.14-.63-.21-.97-.21-.53,0-1.01.15-1.43.45-.42.3-.76.69-1.01,1.18-.24.49-.36,1.01-.36,1.57s.12,1.07.36,1.55c.25.48.59.86,1.01,1.16.42.3.9.45,1.43.45.34,0,.66-.07.97-.2.32-.14.6-.33.85-.56Zm5.32-.49v-8.92h4.2v7.74c0,.44.11.84.32,1.2.21.35.5.64.85.85.36.21.76.31,1.19.31s.84-.1,1.19-.31c.36-.21.65-.5.85-.85.21-.36.32-.77.32-1.2v-7.74h4.2v14s-4.19,0-4.19,0v-.91c-.48.4-1.01.71-1.61.94-.6.22-1.23.34-1.89.34-1,0-1.91-.24-2.74-.73-.82-.49-1.48-1.15-1.97-1.97-.49-.82-.73-1.74-.73-2.74Zm19.99,5.33c-.71-.07-1.39-.22-2.04-.46-.65-.24-1.24-.57-1.75-.99-.51-.42-.92-.93-1.22-1.54l3.53-1.51c.09.1.22.23.39.39.17.15.38.28.63.41.26.12.57.18.94.18.24,0,.48-.02.7-.07.23-.06.42-.15.56-.28.15-.13.22-.31.22-.55,0-.26-.1-.46-.29-.59-.19-.14-.41-.24-.69-.29-.27-.07-.52-.12-.76-.15-.83-.13-1.63-.39-2.39-.78-.76-.4-1.38-.92-1.86-1.55-.49-.64-.73-1.4-.73-2.25,0-.96.25-1.79.74-2.49.49-.7,1.14-1.24,1.93-1.61.8-.38,1.67-.57,2.59-.57,1.09,0,2.1.22,3.02.67.93.45,1.7,1.09,2.3,1.93l-3.3,1.96c-.11-.14-.25-.28-.42-.42-.16-.15-.35-.28-.56-.38-.21-.11-.43-.18-.67-.21-.33-.03-.62-.01-.88.04-.25.05-.45.15-.6.31-.15.15-.22.37-.22.66,0,.27.13.47.39.59s.56.21.88.27.59.12.8.18c.8.26,1.56.6,2.27,1.02.71.42,1.28.93,1.71,1.53.44.6.64,1.3.62,2.1,0,.93-.28,1.75-.84,2.46s-1.28,1.25-2.17,1.61c-.89.36-1.82.5-2.81.41Zm12.22,0c-.71-.07-1.39-.22-2.04-.46-.65-.24-1.24-.57-1.75-.99-.51-.42-.92-.93-1.22-1.54l3.53-1.51c.09.1.22.23.39.39.17.15.38.28.63.41.26.12.57.18.94.18.24,0,.48-.02.7-.07.23-.06.42-.15.56-.28.15-.13.22-.31.22-.55,0-.26-.1-.46-.29-.59-.19-.14-.42-.24-.69-.29-.27-.07-.52-.12-.76-.15-.83-.13-1.63-.39-2.39-.78-.76-.4-1.38-.92-1.86-1.55-.49-.64-.73-1.4-.73-2.25,0-.96.25-1.79.74-2.49.49-.7,1.14-1.24,1.93-1.61.8-.38,1.67-.57,2.59-.57,1.09,0,2.1.22,3.02.67.93.45,1.7,1.09,2.3,1.93l-3.3,1.96c-.11-.14-.25-.28-.42-.42-.16-.15-.35-.28-.56-.38-.21-.11-.43-.18-.67-.21-.33-.03-.62-.01-.88.04-.25.05-.45.15-.6.31-.15.15-.22.37-.22.66,0,.27.13.47.39.59.26.12.55.21.88.27.33.06.59.12.8.18.8.26,1.56.6,2.27,1.02.71.42,1.28.93,1.71,1.53.44.6.64,1.3.62,2.1,0,.93-.28,1.75-.84,2.46-.56.71-1.28,1.25-2.17,1.61-.89.36-1.82.5-2.81.41Z"/>
        <g>
          <path class="cls-2" d="m598.02,200.3c-2.62-.83-1.87-1.48.63-2.42,1.2-.45.47-1.4.5-2.16.01-.35,1.38-.28,1.28-1.62-.07-.94-2.15-2.29-2.72-2.86-.33-.33.67-1.24-.03-2.03-.96-1.09-1.11-2.98-1.69-4.04,0,0,.44-.67.1-1.06-2.92-3.3-13.79-3-16.57,1.86-3.12,5.45-3.16,12.99,3.33,17.05,2.89,1.81-.81,8.2-.81,8.2h11.44c0-1.09-1.28-5.01.96-4.83,1.94.15,4.32.07,4.11-2.12-.06-.66-.14-1.26.32-1.8.46-.55,1.13-1.52-.85-2.15Z"/>
          <polygon class="cls-2" points="600.64 199.27 611.26 200.66 611.26 197.88 600.64 199.27"/>
          <polygon class="cls-2" points="609.27 208.44 610.41 206.03 600.64 200.75 609.27 208.44"/>
          <polygon class="cls-2" points="610.41 192.49 609.27 190.08 600.64 197.77 610.41 192.49"/>
        </g>
      </g>
    </g>
    <g>
      <path class="cls-1" d="m43,158.75h143c22.64,0,41,18.36,41,41h0c0,22.64-18.36,41-41,41H43c-22.64,0-41-18.36-41-41h0c0-22.64,18.36-41,41-41Z"/>
      <g>
        <path class="cls-10" d="m88.41,208.95v-19.6h12.49v4.2h-8.29v2.8h6.38v4.2h-6.38v4.2h8.29v4.2h-12.49Zm14.15,0l5.12-7.03-5.07-6.97h5.18l2.46,3.39,2.49-3.39h5.18l-5.07,6.97,5.12,7.03h-5.18l-2.55-3.47-2.52,3.47h-5.18Zm22.72.36c-1.29,0-2.46-.33-3.53-.99-1.06-.66-1.9-1.55-2.53-2.67-.63-1.12-.94-2.36-.94-3.71,0-1.02.18-1.97.55-2.86.36-.9.86-1.68,1.5-2.35.64-.68,1.39-1.21,2.24-1.6.85-.38,1.75-.57,2.72-.57,1.12,0,2.14.25,3.07.74.93.49,1.72,1.15,2.35,1.99.64.83,1.1,1.77,1.37,2.81.27,1.05.3,2.12.08,3.23h-9.34c.13.33.3.63.52.9.22.26.49.47.81.63.33.16.7.24,1.13.25.41,0,.79-.08,1.13-.27.35-.19.66-.44.92-.76l4.28.99c-.57,1.24-1.42,2.26-2.55,3.05-1.13.78-2.39,1.18-3.79,1.18Zm-2.62-9.06h5.25c-.13-.4-.33-.76-.59-1.06-.26-.31-.57-.55-.92-.73-.35-.18-.72-.27-1.12-.27s-.77.09-1.12.27c-.35.18-.65.42-.91.73-.25.31-.45.66-.59,1.06Zm19.83,4.1l3.78,2.04c-.64.88-1.45,1.58-2.42,2.11-.97.53-2.03.8-3.18.8-1.29,0-2.46-.33-3.53-.99-1.05-.66-1.9-1.55-2.53-2.66-.62-1.12-.94-2.36-.94-3.71,0-1.03.18-1.98.55-2.87.36-.9.86-1.68,1.5-2.35.64-.68,1.39-1.21,2.24-1.6.85-.38,1.76-.57,2.72-.57,1.15,0,2.21.27,3.18.8.97.53,1.78,1.25,2.42,2.14l-3.78,2.04c-.25-.25-.54-.44-.85-.57-.31-.14-.63-.21-.97-.21-.53,0-1.01.15-1.43.45-.42.3-.76.69-1.01,1.18-.24.49-.36,1.01-.36,1.57s.12,1.07.36,1.55c.25.48.59.86,1.01,1.16.42.3.9.45,1.43.45.34,0,.66-.07.97-.2.32-.14.6-.33.85-.56Zm5.32-.49v-8.92h4.2v7.74c0,.44.11.84.32,1.2.21.35.5.64.85.85.36.21.76.31,1.19.31s.84-.1,1.19-.31c.36-.21.65-.5.85-.85.21-.36.32-.77.32-1.2v-7.74h4.2v14s-4.19,0-4.19,0v-.91c-.48.4-1.01.71-1.61.94-.6.22-1.23.34-1.89.34-1,0-1.91-.24-2.74-.73-.82-.49-1.48-1.15-1.97-1.97-.49-.82-.73-1.74-.73-2.74Zm23.65-4.72h-2.38v9.8h-4.2v-9.8h-1.82v-4.2h1.82v-4.4h4.2v4.4h2.38v4.2Zm8.41,10.16c-1.29,0-2.46-.33-3.53-.99-1.05-.66-1.9-1.55-2.53-2.67-.62-1.12-.94-2.36-.94-3.71,0-1.02.18-1.97.55-2.86.36-.9.86-1.68,1.5-2.35.64-.68,1.39-1.21,2.24-1.6.85-.38,1.76-.57,2.72-.57,1.12,0,2.14.25,3.07.74.93.49,1.72,1.15,2.35,1.99.64.83,1.1,1.77,1.37,2.81.27,1.05.3,2.12.08,3.23h-9.34c.13.33.3.63.52.9.22.26.49.47.81.63.33.16.71.24,1.13.25.41,0,.79-.08,1.13-.27.35-.19.66-.44.92-.76l4.28.99c-.57,1.24-1.42,2.26-2.55,3.05-1.13.78-2.39,1.18-3.79,1.18Zm-2.62-9.06h5.25c-.13-.4-.33-.76-.59-1.06-.26-.31-.57-.55-.92-.73-.35-.18-.72-.27-1.12-.27s-.76.09-1.12.27c-.35.18-.65.42-.91.73-.25.31-.45.66-.59,1.06Z"/>
        <g>
          <path class="cls-3" d="m75.1,212.58c0,2.02-1.64,3.67-3.67,3.67h-25.67c-2.02,0-3.67-1.64-3.67-3.67v-25.67c0-2.02,1.64-3.67,3.67-3.67h25.67c2.03,0,3.67,1.64,3.67,3.67v25.67Z"/>
          <path class="cls-10" d="m68.94,189.08c-1.06-.69-2.48-.39-3.17.67l-9.98,15.38-4.61-4.26c-.93-.86-2.38-.8-3.24.13-.86.93-.8,2.38.13,3.24l6.61,6.11c.44.41,1,.61,1.55.61.62,0,1.41-.26,1.92-1.04.3-.46,11.46-17.66,11.46-17.66.69-1.06.39-2.48-.68-3.17Z"/>
        </g>
      </g>
    </g>
  </g>
  <g>
    <g>
      <path class="cls-10" d="m257.31,190.79v-28h17.56v4.88h-12.68v5.68h10.06v4.88h-10.06v7.68h12.68v4.88h-17.56Zm33.71,0h-6.3l-7.28-20.02h5.2l5.24,14.4,5.22-14.4h5.2l-7.28,20.02Zm18.26.52c-1.84,0-3.52-.47-5.04-1.42-1.51-.95-2.71-2.22-3.62-3.82-.89-1.6-1.34-3.37-1.34-5.3,0-1.45.26-2.81.78-4.08.52-1.28,1.23-2.4,2.14-3.36.92-.97,1.99-1.73,3.2-2.28,1.21-.55,2.51-.82,3.88-.82,1.56,0,2.99.33,4.28,1,1.31.65,2.41,1.55,3.32,2.7.91,1.15,1.57,2.45,1.98,3.92.41,1.47.51,3,.28,4.6h-14.62c.19.75.49,1.42.92,2.02.43.59.97,1.06,1.62,1.42.65.35,1.39.53,2.22.54.85.01,1.63-.19,2.32-.6.71-.43,1.29-1,1.76-1.72l4.98,1.16c-.81,1.77-2.03,3.23-3.64,4.36-1.61,1.12-3.42,1.68-5.42,1.68Zm-4.92-12.52h9.84c-.15-.8-.46-1.52-.94-2.16-.47-.65-1.05-1.17-1.74-1.56-.69-.39-1.44-.58-2.24-.58s-1.54.19-2.22.58c-.68.37-1.26.89-1.74,1.54-.47.64-.79,1.37-.96,2.18Zm18.05,12l-.02-20h4.88l.02,1.78c.68-.72,1.49-1.29,2.44-1.7.95-.43,1.97-.64,3.06-.64.73,0,1.47.11,2.2.32l-1.92,4.92c-.51-.2-1.01-.3-1.52-.3-.79,0-1.51.19-2.16.58-.64.37-1.15.89-1.54,1.54-.37.64-.56,1.35-.56,2.14v11.36h-4.88Zm28.47-20h5.18l-10.94,30h-5.18l3.62-10-7.2-20h5.34l4.3,13.32,4.88-13.32Zm64.76,20v-28h9.28c1.93,0,3.74.37,5.42,1.1,1.69.72,3.18,1.73,4.46,3.02,1.29,1.28,2.3,2.77,3.02,4.46.73,1.68,1.1,3.49,1.1,5.42s-.37,3.75-1.1,5.44c-.72,1.68-1.73,3.17-3.02,4.46-1.28,1.28-2.77,2.29-4.46,3.02-1.68.72-3.49,1.08-5.42,1.08h-9.28Zm4.88-4.88h4.4c1.24,0,2.41-.23,3.5-.7,1.11-.48,2.08-1.13,2.92-1.96.84-.84,1.5-1.81,1.98-2.9.48-1.11.72-2.29.72-3.56s-.24-2.45-.72-3.54c-.48-1.09-1.14-2.06-1.98-2.9-.84-.84-1.81-1.49-2.9-1.96-1.09-.48-2.27-.72-3.52-.72h-4.4v18.24Zm36.45-15.12h4.88v20h-4.88l-.22-2.48c-.55.89-1.27,1.62-2.18,2.18-.89.55-1.95.82-3.18.82-1.48,0-2.87-.28-4.16-.84s-2.43-1.33-3.42-2.32c-.97-.99-1.74-2.13-2.3-3.42-.55-1.29-.82-2.68-.82-4.16s.26-2.77.78-4.02c.53-1.25,1.27-2.35,2.22-3.3.95-.95,2.04-1.69,3.28-2.22s2.57-.8,4-.8c1.32,0,2.5.29,3.54.88,1.05.59,1.95,1.33,2.68,2.24l-.22-2.56Zm-5.7,15.82c1.04,0,1.96-.26,2.76-.78.8-.52,1.43-1.22,1.88-2.1.45-.89.68-1.87.68-2.94s-.23-2.06-.68-2.94c-.45-.89-1.09-1.6-1.9-2.12-.8-.52-1.71-.78-2.74-.78s-1.97.27-2.82.8c-.84.52-1.51,1.22-2.02,2.1-.49.88-.74,1.86-.74,2.94s.25,2.06.76,2.94c.51.88,1.18,1.58,2.02,2.1.85.52,1.79.78,2.8.78Zm27.19-15.82h5.18l-10.94,30h-5.18l3.62-10-7.2-20h5.34l4.3,13.32,4.88-13.32Zm13.86,20.36c-1.04-.07-2.05-.27-3.02-.62-.96-.36-1.81-.85-2.56-1.46-.75-.61-1.32-1.35-1.72-2.2l4.12-1.76c.16.27.42.55.78.86.36.29.79.54,1.28.74.51.2,1.06.3,1.66.3.51,0,.99-.07,1.44-.2.47-.15.84-.37,1.12-.66.29-.29.44-.67.44-1.14,0-.49-.17-.87-.52-1.14-.33-.28-.76-.49-1.28-.62-.51-.15-1-.28-1.48-.4-1.27-.25-2.45-.65-3.54-1.18-1.08-.53-1.95-1.22-2.62-2.06-.65-.85-.98-1.88-.98-3.08,0-1.32.35-2.46,1.04-3.42.71-.96,1.62-1.7,2.74-2.22,1.13-.52,2.35-.78,3.66-.78,1.59,0,3.04.33,4.36,1,1.33.65,2.39,1.58,3.16,2.78l-3.86,2.28c-.19-.32-.45-.61-.78-.88-.33-.28-.71-.51-1.14-.68-.43-.19-.87-.29-1.34-.32-.6-.03-1.15.03-1.64.16-.49.13-.89.36-1.2.68-.29.32-.44.75-.44,1.28s.2.89.6,1.14c.4.24.88.43,1.44.56.57.13,1.12.28,1.64.44,1.17.39,2.27.86,3.3,1.42,1.04.56,1.87,1.25,2.5,2.06.63.81.93,1.79.9,2.92,0,1.29-.39,2.43-1.16,3.4-.77.96-1.77,1.69-3,2.2-1.21.51-2.51.71-3.9.6Z"/>
      <path class="cls-5" d="m372.37,190.79v-23.12h-3.52l1.32-4.88h7.08v28h-4.88Zm21.6,0v-6.78h-11.92v-4.9l10.78-16.32h6.02v16.34h2.36v4.88h-2.36v6.78h-4.88Zm-6.26-11.68l6.26.02-.02-9.68-6.24,9.66Z"/>
    </g>
    <path class="cls-10" d="m287.57,228.79c-.95,0-1.81-.19-2.6-.56-.78-.38-1.44-.9-1.98-1.57-.53-.67-.92-1.44-1.16-2.31-.23-.88-.28-1.82-.14-2.82.14-1,.45-1.94.93-2.81.48-.88,1.08-1.65,1.81-2.32.73-.67,1.54-1.19,2.43-1.56.89-.38,1.8-.57,2.75-.57s1.82.19,2.6.57c.78.37,1.44.89,1.97,1.56.54.67.93,1.44,1.16,2.32.24.87.29,1.81.15,2.81-.14,1-.45,1.94-.93,2.82-.48.87-1.09,1.64-1.82,2.31-.73.67-1.53,1.19-2.42,1.57-.88.37-1.8.56-2.75.56Zm.34-2.44c.61,0,1.21-.13,1.78-.38.58-.25,1.1-.6,1.57-1.04.47-.45.87-.96,1.18-1.54.31-.58.52-1.2.61-1.86.09-.66.06-1.28-.09-1.86-.15-.59-.39-1.1-.74-1.54-.35-.44-.77-.79-1.28-1.04-.5-.25-1.06-.38-1.67-.38s-1.21.13-1.79.38c-.57.25-1.1.6-1.57,1.05-.47.44-.86.95-1.17,1.53-.31.58-.52,1.2-.61,1.86-.09.67-.07,1.29.08,1.87.15.58.4,1.09.75,1.54.35.44.77.79,1.27,1.04.51.25,1.07.37,1.68.37Zm8.52,2.18l1.39-10h2.44l-.12.89c.39-.36.84-.64,1.34-.85.51-.21,1.03-.32,1.58-.32.37,0,.73.05,1.08.16l-1.31,2.46c-.23-.1-.48-.15-.74-.15-.39,0-.77.1-1.12.29-.35.19-.64.44-.87.77-.23.32-.38.68-.44,1.07l-.79,5.68h-2.44Zm21.43-10h2.44l-1.4,10h-2.44l.06-1.24c-.34.45-.75.81-1.24,1.09-.49.27-1.04.41-1.65.41-.74,0-1.41-.14-2.02-.42-.61-.28-1.12-.67-1.55-1.16-.42-.49-.72-1.06-.91-1.71-.18-.65-.22-1.34-.11-2.08.1-.71.32-1.38.67-2.01.35-.63.8-1.18,1.33-1.65.54-.47,1.14-.84,1.8-1.11.66-.27,1.35-.4,2.06-.4.66,0,1.23.15,1.71.44.49.29.88.67,1.19,1.12l.06-1.28Zm-3.96,7.91c.51,0,.99-.13,1.43-.39.44-.26.8-.61,1.09-1.05.29-.45.48-.94.55-1.47.07-.54.03-1.03-.14-1.47-.17-.45-.43-.8-.8-1.06-.36-.26-.8-.39-1.31-.39s-1.01.13-1.47.4c-.46.26-.85.61-1.16,1.05-.31.44-.5.93-.57,1.47-.07.54-.02,1.03.17,1.47.19.44.48.79.87,1.05.39.26.83.39,1.34.39Zm17.03-4.23l-.88,6.32h-2.44l.79-5.68c.06-.39.01-.75-.14-1.07-.15-.33-.37-.58-.67-.77-.29-.19-.64-.29-1.03-.29s-.77.1-1.12.29c-.35.19-.64.44-.87.77-.23.32-.38.68-.44,1.07l-.79,5.68h-2.44l1.39-10h2.44l-.12.89c.39-.36.84-.64,1.34-.85.51-.21,1.03-.32,1.58-.32.73,0,1.36.18,1.91.54.55.35.96.83,1.23,1.43.28.59.37,1.26.26,1.99Zm8.83-3.68h2.59l-7.58,15h-2.59l2.52-5-2.2-10h2.67l1.21,6.66,3.38-6.66Zm14.41,2.44h-1.94l-1.06,7.56h-2.44l1.06-7.56h-1.48l.34-2.44h1.48l.44-3.14h2.44l-.44,3.14h1.94l-.34,2.44Zm1.99-2.44h2.44l-1.4,10h-2.44l1.4-10Zm1.42-1.29c-.36,0-.65-.12-.86-.35-.21-.24-.29-.54-.24-.9.05-.35.22-.65.49-.89.28-.24.6-.36.96-.36s.62.12.83.36c.21.24.3.54.25.89-.05.36-.22.66-.49.9-.27.23-.58.35-.94.35Zm1.95,11.29l1.4-10h2.44l-.12.89c.39-.36.84-.64,1.34-.85.5-.21,1.02-.32,1.57-.32.69,0,1.31.16,1.84.49.54.33.95.76,1.22,1.31.43-.55.95-.98,1.58-1.31.63-.33,1.29-.49,1.98-.49.73,0,1.37.18,1.92.54.55.35.96.83,1.23,1.43.27.59.36,1.26.25,1.99l-.88,6.32h-2.44l.8-5.67c.05-.39,0-.74-.14-1.06-.15-.33-.37-.59-.66-.78-.29-.2-.63-.3-1.02-.3s-.76.1-1.11.29c-.34.19-.63.44-.86.76-.23.32-.38.68-.44,1.09l-.8,5.67h-2.44l.8-5.67c.06-.41.02-.77-.13-1.09-.15-.32-.37-.57-.66-.76-.29-.19-.64-.29-1.03-.29s-.74.1-1.09.3c-.35.19-.64.45-.88.78-.23.32-.38.67-.43,1.06l-.8,5.67h-2.44Zm21.94.26c-.92,0-1.73-.24-2.42-.71-.69-.47-1.2-1.11-1.54-1.91-.33-.8-.43-1.68-.3-2.65.1-.73.32-1.41.67-2.04.35-.64.79-1.2,1.32-1.68.53-.49,1.11-.87,1.75-1.14.65-.27,1.31-.41,2-.41.78,0,1.47.17,2.07.5.61.33,1.1.78,1.47,1.35.37.57.61,1.23.71,1.96.11.73.05,1.5-.18,2.3h-7.3c.03.37.14.71.31,1.01.17.29.41.53.71.71.3.17.66.26,1.07.27.43,0,.83-.09,1.21-.3.38-.21.71-.5.99-.86l2.41.58c-.53.89-1.23,1.61-2.12,2.18-.89.56-1.83.84-2.83.84Zm-1.58-6.26h4.92c-.02-.4-.13-.76-.32-1.08-.19-.33-.44-.59-.76-.78-.31-.19-.67-.29-1.07-.29s-.79.1-1.16.29c-.37.19-.69.44-.97.77-.28.32-.49.68-.64,1.09Zm21.48-4h2.59l-7.58,15h-2.59l2.52-5-2.2-10h2.67l1.21,6.66,3.38-6.66Zm6.55,10.26c-.92,0-1.73-.24-2.42-.71-.69-.47-1.2-1.11-1.54-1.9-.33-.8-.43-1.68-.3-2.65.1-.73.32-1.42.67-2.05.35-.64.79-1.2,1.32-1.68.53-.49,1.11-.87,1.75-1.14.65-.27,1.31-.41,2-.41.92,0,1.72.24,2.41.71.69.47,1.21,1.11,1.55,1.91s.44,1.69.3,2.66c-.1.73-.33,1.41-.68,2.04-.35.63-.78,1.19-1.31,1.68-.53.48-1.11.86-1.75,1.13-.64.27-1.31.41-2,.41Zm.34-2.44c.49,0,.94-.13,1.36-.39.42-.26.77-.6,1.06-1.03.29-.43.47-.89.54-1.4.07-.52.02-.99-.15-1.42-.17-.43-.43-.78-.78-1.03-.35-.26-.76-.39-1.23-.39s-.93.13-1.36.39c-.42.26-.77.61-1.06,1.04-.29.43-.47.9-.54,1.41-.07.53-.02,1,.15,1.43.17.43.44.77.79,1.02.35.25.76.37,1.22.37Zm6.14-1.52l.88-6.3h2.44l-.8,5.66c-.05.39,0,.75.15,1.08.15.32.37.58.66.77.3.19.64.28,1.03.28s.76-.09,1.11-.28c.35-.19.65-.45.88-.77.24-.33.39-.69.44-1.08l.8-5.66h2.44l-1.39,10h-2.44l.11-.91c-.39.36-.84.65-1.35.86-.5.21-1.02.31-1.56.31-.73,0-1.37-.18-1.92-.53-.55-.36-.96-.84-1.23-1.43-.27-.6-.35-1.27-.25-2Zm20.61,3.7h-2.42l-1.94-10h2.39l1.27,6.47,3.06-6.47h2.41l1.25,6.47,3.08-6.47h2.39l-4.74,10h-2.42l-1.25-6.5-3.08,6.5Zm20.13-10h2.44l-1.4,10h-2.44l.06-1.24c-.34.45-.75.81-1.24,1.09-.49.27-1.04.41-1.65.41-.74,0-1.41-.14-2.02-.42-.61-.28-1.12-.67-1.55-1.16-.42-.49-.72-1.06-.91-1.71-.18-.65-.22-1.34-.11-2.08.1-.71.32-1.38.67-2.01.35-.63.8-1.18,1.33-1.65.54-.47,1.14-.84,1.8-1.11.66-.27,1.35-.4,2.06-.4.66,0,1.23.15,1.71.44.49.29.88.67,1.19,1.12l.06-1.28Zm-3.96,7.91c.51,0,.99-.13,1.43-.39.44-.26.8-.61,1.09-1.05.29-.45.48-.94.55-1.47.07-.54.03-1.03-.14-1.47-.17-.45-.43-.8-.8-1.06-.36-.26-.8-.39-1.31-.39s-1.01.13-1.47.4c-.46.26-.85.61-1.16,1.05-.31.44-.5.93-.57,1.47-.07.54-.02,1.03.17,1.47.19.44.48.79.87,1.05.39.26.83.39,1.34.39Zm17.03-4.23l-.88,6.32h-2.44l.79-5.68c.06-.39.01-.75-.14-1.07-.15-.33-.37-.58-.67-.77-.29-.19-.64-.29-1.03-.29s-.77.1-1.12.29c-.35.19-.64.44-.87.77-.23.32-.38.68-.44,1.07l-.79,5.68h-2.44l1.39-10h2.44l-.12.89c.39-.36.84-.64,1.34-.85.51-.21,1.03-.32,1.58-.32.73,0,1.36.18,1.91.54.55.35.96.83,1.23,1.43.28.59.37,1.26.26,1.99Zm7.53-1.24h-1.94l-1.06,7.56h-2.44l1.06-7.56h-1.48l.34-2.44h1.48l.44-3.14h2.44l-.44,3.14h1.94l-.34,2.44Z"/>
  </g>
</svg>